<svg version="1" xmlns="http://www.w3.org/2000/svg" width="1497.333" height="1497.333" viewBox="0 0 1123.000000 1123.000000"><path d="M555 110.4c0 .2 1.3 3 2.9 6.2 4.6 9.6 9.5 23.6 11.7 33.9 1.5 6.9 1.4 23.3-.2 28.7-5.1 17.2-14 27.8-41.9 49.6-20.8 16.3-27.2 21.8-37.5 32.2-9.7 9.8-16.4 18.3-20 25.5-1.4 2.8-2.7 5.2-3 5.5-1.2 1.2-6.4 16.7-7.5 22.5-4.1 21.2-1.8 49.2 6 72.1 10.2 29.7 26.6 51.5 55.5 73.7 6.3 4.8 12 9.1 12.6 9.6 6.5 5.3 52.7 30.2 53.8 29 .2-.2-1.2-3.6-3.1-7.4-7.8-15.9-12.3-32.3-12.8-46.3-.4-13.4 2.5-23.1 10.5-34.7 4.4-6.4 17-18.7 26.3-25.7 27-20.3 49.1-40.5 58.1-53.1 8.1-11.3 15.3-29 17.3-42.7 1.5-9.4.5-43.2-1.2-46.1-.2-.3-.7-2.1-1-4-1.1-6.8-6.8-23.6-11.1-32.7-15.8-34-47.3-62.4-97.1-87.9-14.8-7.5-18.3-9.1-18.3-7.9zM401.8 531.8c-3.7.2-5.2.9-7 3.1-2.2 2.5-2.4 3.7-2.3 13.4 0 9.5.2 10.8 2.2 13.1 1.3 1.4 3.1 2.7 4 2.7 9.9.7 343.5.3 345.6-.4 4.8-1.6 5.7-4.1 5.7-16 0-10.4-.1-10.9-2.6-13.2-2.3-2.2-3.7-2.5-9.8-2.5-39.3-.3-332.2-.4-335.8-.2zM402.6 590.9c-.2.3-.3 94.5-.3 209.3V1009h2.1c2.9.1 86.1.1 91.4.1l4.2-.1V875.8l3.9 4.9c8 10.1 22 17.3 38.6 19.8 4.6.7 21.7.7 25.5.1 1.4-.3 4.1-.7 6-1 18.7-2.8 37.1-14.9 49.8-32.6 3-4.1 5.6-7.5 5.8-7.5.2 0 2 3.1 4 7 7 13.5 15.9 22.7 26.8 27.9 10 4.8 18.7 6.5 33 6.5 10.5 0 14.9-.5 24.1-2.4 6.2-1.2 24.7-7.6 27-9.3.7-.4 1.1-12.3 1-34.3 0-33.5 0-33.6-2-32.3-7.5 4.9-21.3 6.1-26.8 2.2-1.7-1.2-3.8-2.9-4.4-3.8-1.6-1.9-4.1-10.2-4.7-15.5-.3-2.2-.5-51.5-.5-109.6l-.1-105.7h-48.4c-35.1 0-48.6.4-48.8 1.2-.2.6-.3 42-.3 92.1.1 50-.3 93.2-.7 96-.5 2.7-1 6.5-1.3 8.4-.6 4.7-2.3 9.6-5.1 15.6-8 16.6-24.6 25.1-48.6 24.8-22.7-.3-37.5-7.9-45.8-23.4-3.4-6.3-6.8-18.6-7.4-26.4-.3-2.8-.5-46.2-.5-96.6l-.1-91.6-48.5-.1c-26.7 0-48.7.3-48.9.7z"/></svg>